<?xml version="1.0" standalone="no"?>
<!DOCTYPE svg PUBLIC "-//W3C//DTD SVG 20010904//EN"
 "http://www.w3.org/TR/2001/REC-SVG-20010904/DTD/svg10.dtd">
<svg version="1.0" xmlns="http://www.w3.org/2000/svg"
 width="463.000000pt" height="245.000000pt" viewBox="0 0 463.000000 245.000000"
 preserveAspectRatio="xMidYMid meet">

<g transform="translate(0.000000,245.000000) scale(0.100000,-0.100000)"
fill="#000000" stroke="none">
<path d="M1964 2439 c-3 -6 -1 -16 5 -22 6 -6 11 -15 11 -19 0 -15 -95 -7
-150 12 -94 33 -159 23 -227 -34 -26 -22 -60 -33 -178 -57 -350 -72 -621 -185
-770 -321 l-63 -58 -221 0 -221 0 0 -94 c0 -92 -1 -96 -44 -177 -80 -153 -114
-317 -103 -507 8 -144 37 -257 97 -378 49 -99 50 -102 50 -192 l0 -92 245 0
c189 0 245 -3 245 -12 0 -7 -7 -37 -14 -66 l-14 -53 79 -39 c306 -155 723
-263 1199 -312 164 -17 686 -17 850 0 476 49 893 157 1199 312 l79 39 -14 53
c-7 29 -14 59 -14 65 0 10 58 13 243 15 l242 3 5 95 c5 88 8 102 52 190 58
116 87 230 95 372 11 190 -23 354 -103 507 -43 81 -44 85 -44 177 l0 94 -221
0 -221 0 -63 58 c-286 262 -1031 429 -1810 404 l-150 -4 -14 26 c-15 28 -26
32 -37 15z m-117 -56 c51 -16 93 -31 93 -35 0 -12 -86 -20 -169 -17 -54 3 -77
1 -70 -6 5 -5 60 -10 120 -10 l110 0 -26 -22 c-14 -12 -44 -27 -66 -33 -43
-12 -54 -9 -202 43 l-69 25 34 25 c43 33 96 56 128 57 14 0 67 -12 117 -27z
m728 -55 c33 -15 74 -31 92 -34 l32 -6 -21 -42 c-43 -85 -91 -126 -147 -126
-30 0 -182 60 -205 81 -6 5 9 17 35 28 33 16 67 21 139 21 78 1 90 3 70 12
-14 6 -61 12 -105 12 -65 1 -88 -3 -123 -22 -41 -21 -42 -21 -32 -2 18 33 81
91 114 105 38 16 73 10 151 -27z m-327 -103 c2 -33 13 -60 60 -155 1 -3 -31
-4 -72 -2 l-75 4 -22 45 c-21 43 -88 103 -116 103 -7 0 -13 9 -13 20 0 16 8
20 63 23 34 2 87 3 117 3 l54 -1 4 -40z m44 23 c-7 -7 -12 -8 -12 -2 0 6 3 14
7 17 3 4 9 5 12 2 2 -3 -1 -11 -7 -17z m-302 -3 c0 -10 -10 -15 -26 -15 -87 0
-153 -48 -218 -158 -25 -42 -58 -91 -74 -109 l-28 -32 -57 22 c-56 21 -58 23
-52 52 3 16 17 47 31 68 14 21 24 43 22 49 -7 19 -45 -44 -61 -97 -14 -49 -15
-50 -59 -56 -55 -8 -96 -29 -135 -67 -26 -27 -34 -29 -101 -29 l-72 0 6 36 c4
20 11 46 15 59 12 32 11 42 -5 42 -10 0 -16 -20 -21 -71 -7 -67 -10 -73 -54
-117 -56 -56 -76 -115 -68 -201 5 -65 23 -104 69 -156 32 -37 95 -75 123 -75
26 0 8 -17 -26 -24 -18 -3 -29 -11 -27 -18 12 -34 149 -54 478 -69 129 -6 280
-14 335 -17 l100 -7 -77 -13 c-80 -14 -97 -25 -53 -36 96 -24 787 -35 1016
-16 164 14 183 24 107 59 l-43 19 61 1 c84 1 265 20 353 37 97 18 146 42 145
71 0 14 7 25 17 28 32 10 59 55 59 97 0 47 -43 98 -82 98 -20 0 -26 7 -34 42
-11 52 -63 93 -106 84 -25 -5 -26 -3 -21 27 15 97 -96 160 -166 93 l-27 -26
-18 57 c-26 82 -51 128 -97 178 -89 97 -197 138 -356 137 l-93 0 16 30 16 31
81 -7 c386 -32 813 -146 1045 -278 132 -76 255 -207 255 -273 0 -66 -123 -197
-255 -273 -244 -139 -624 -238 -1093 -284 -168 -16 -672 -16 -840 0 -582 57
-1023 195 -1231 385 -62 57 -94 98 -112 148 -32 83 136 249 352 349 223 103
627 202 876 214 47 3 105 9 130 14 67 14 80 14 80 -3z m409 -103 c85 -36 90
-40 74 -54 -10 -9 -41 -19 -70 -23 l-52 -7 -25 51 c-24 46 -32 71 -23 71 2 0
45 -17 96 -38z m564 -1 c163 -64 265 -247 255 -461 -5 -113 -43 -197 -127
-281 -33 -32 -64 -59 -69 -59 -6 0 -8 16 -5 38 9 69 -41 140 -109 157 -21 5
-28 13 -28 31 0 13 -7 41 -16 63 -12 31 -13 44 -4 61 10 18 9 24 -1 31 -11 7
-11 9 1 9 13 0 13 1 0 10 -17 11 -20 8 56 47 l62 30 -20 31 c-26 41 -63 64
-101 62 -59 -4 -83 0 -69 9 12 7 11 14 -2 40 -9 17 -23 31 -31 31 -8 0 -15 5
-15 10 0 6 -9 10 -20 10 -11 0 -20 4 -20 9 0 5 -26 13 -57 16 -32 4 -80 15
-108 25 -54 20 -57 17 30 35 13 3 39 18 57 34 47 40 51 41 173 37 85 -2 123
-8 168 -25z m-649 -107 c8 -3 17 -12 20 -20 4 -10 -4 -14 -30 -14 -19 0 -33
-4 -30 -9 8 -13 77 -21 115 -13 45 10 53 32 12 32 -38 0 -50 17 -16 26 48 12
148 -1 198 -26 52 -26 115 -88 142 -139 l16 -32 -28 3 c-27 3 -28 2 -23 -37
13 -102 6 -189 -20 -240 -24 -47 -27 -50 -60 -47 -48 4 -97 -29 -120 -81 -24
-51 -25 -86 -5 -134 8 -19 15 -37 15 -39 0 -13 -101 -1 -132 16 -20 11 -40 16
-43 11 -2 -5 -27 -14 -54 -21 -100 -24 -179 26 -255 163 -144 257 -68 549 159
608 29 8 112 4 139 -7z m-1759 -163 c-6 -20 -13 -21 -151 -21 l-144 0 0 -69
c0 -60 -4 -75 -35 -126 -166 -276 -164 -612 5 -876 26 -40 30 -55 30 -117 l0
-72 204 0 c199 0 204 0 199 -20 -5 -19 -14 -20 -234 -20 l-229 0 0 84 c0 77
-3 89 -33 143 -73 129 -105 242 -113 398 -10 179 29 349 111 488 33 54 35 65
35 142 l0 85 178 2 c97 2 179 2 180 1 2 -1 1 -11 -3 -22z m3865 -57 c0 -70 3
-80 40 -142 87 -148 126 -314 116 -497 -8 -147 -26 -217 -97 -361 -55 -113
-59 -126 -59 -193 l0 -71 -224 0 c-215 0 -224 1 -229 20 -5 20 0 20 199 20
l204 0 0 72 c0 62 4 77 30 117 169 264 171 600 5 876 -31 51 -35 66 -35 126
l0 69 -144 0 c-145 0 -156 3 -156 38 0 4 79 6 175 4 l175 -3 0 -75z m-1494 41
l26 -26 -47 -24 c-46 -25 -99 -32 -123 -16 -9 5 4 10 38 13 83 8 83 26 1 20
-39 -2 -71 -2 -71 1 0 3 19 17 43 31 55 34 100 34 133 1z m-166 -172 c0 -24
-7 -73 -16 -108 -13 -51 -20 -65 -35 -65 -23 0 -23 3 -3 60 9 25 16 78 17 118
0 69 1 72 19 56 12 -12 18 -31 18 -61z m90 -113 c0 -20 -5 -30 -15 -30 -18 0
-19 12 -3 28 9 9 9 12 -2 12 -13 0 -13 2 0 10 20 13 20 14 20 -20z m-2309
-119 c52 -26 161 -83 243 -126 l149 -78 -65 -61 -65 -61 -58 -235 c-32 -129
-61 -238 -64 -242 -11 -13 -324 141 -411 202 -12 9 7 32 107 128 l123 117 -30
195 c-32 208 -32 210 -26 210 2 0 45 -22 97 -49z m3649 42 c0 -5 -14 -96 -30
-203 l-30 -195 123 -117 c100 -96 119 -119 107 -128 -87 -61 -400 -215 -411
-202 -3 4 -32 113 -64 242 l-59 235 -65 61 -64 61 149 78 c82 43 190 99 239
126 93 49 105 54 105 42z m-3179 -472 c543 -183 1441 -230 2144 -111 152 26
356 75 464 111 47 16 86 28 87 26 1 -1 -26 -18 -61 -36 -36 -19 -63 -37 -60
-39 2 -2 34 6 70 18 36 12 69 20 72 17 3 -3 -30 -24 -73 -46 -44 -22 -77 -40
-74 -40 3 -1 41 10 85 24 43 13 81 22 83 20 2 -2 -31 -22 -74 -44 -92 -47 -88
-50 19 -17 42 14 77 23 77 20 0 -2 -39 -24 -87 -49 -49 -25 -77 -43 -64 -39
12 3 53 15 89 25 37 10 69 19 72 18 3 0 -33 -20 -80 -44 -95 -49 -95 -54 0
-25 95 29 95 24 0 -25 -47 -24 -83 -44 -80 -44 3 -1 35 8 72 18 36 10 77 22
89 25 13 4 -19 -16 -71 -43 -52 -28 -93 -50 -90 -50 3 -1 41 10 85 24 44 14
85 25 90 24 6 0 -28 -20 -75 -44 -95 -49 -95 -54 -2 -25 96 30 96 24 2 -26
-47 -24 -74 -42 -61 -38 12 3 53 15 89 25 37 10 69 19 72 18 3 0 -33 -20 -80
-44 -95 -49 -95 -54 0 -25 101 31 103 23 5 -25 -49 -25 -80 -42 -69 -40 12 3
53 14 90 25 38 10 70 17 72 15 2 -2 -33 -20 -77 -41 -45 -20 -80 -39 -78 -41
3 -2 39 6 82 18 42 11 79 19 81 16 2 -2 -34 -21 -81 -42 -47 -21 -84 -39 -82
-41 1 -2 43 8 92 21 49 14 90 23 92 21 2 -2 -35 -20 -82 -41 -47 -21 -83 -40
-81 -42 2 -3 39 5 81 16 43 12 79 20 82 18 2 -2 -35 -21 -82 -42 -47 -21 -84
-40 -82 -41 1 -2 44 8 95 20 50 13 90 20 87 16 -9 -14 -248 -108 -370 -145
-223 -68 -480 -118 -750 -147 -162 -18 -740 -17 -905 0 -293 32 -617 100 -835
176 -112 39 -265 103 -279 116 -5 5 33 -2 85 -15 51 -13 95 -23 96 -21 2 1
-35 20 -82 41 -47 21 -84 40 -82 42 3 2 39 -6 81 -17 43 -12 80 -20 82 -17 2
2 -34 21 -81 42 -47 21 -84 39 -82 41 2 2 43 -7 92 -21 49 -13 91 -23 92 -21
2 2 -35 21 -81 42 -47 21 -84 40 -82 42 3 2 39 -6 82 -17 42 -12 78 -20 81
-18 2 2 -33 21 -78 41 -44 21 -79 39 -77 41 2 2 34 -5 72 -15 37 -11 78 -22
90 -25 11 -2 -19 15 -69 40 -98 48 -96 56 5 25 95 -29 95 -24 0 25 -47 24 -83
44 -80 44 3 1 35 -8 72 -18 36 -10 77 -22 89 -25 13 -4 -14 14 -61 38 -94 50
-94 56 2 26 93 -29 93 -24 -2 25 -47 24 -80 44 -75 44 6 1 46 -10 90 -24 44
-14 82 -25 85 -24 3 0 -38 22 -90 50 -52 27 -84 47 -71 43 12 -3 53 -15 89
-25 37 -10 69 -19 72 -18 3 0 -33 20 -80 44 -95 49 -95 54 0 25 95 -29 95 -24
0 25 -47 24 -83 44 -80 44 3 1 35 -8 72 -18 36 -10 77 -22 89 -25 13 -4 -15
14 -63 39 -49 25 -88 47 -88 49 0 3 35 -6 78 -20 106 -33 110 -30 18 17 -43
22 -76 42 -74 44 2 2 39 -7 83 -20 43 -14 80 -24 81 -22 1 1 -31 20 -72 41
-40 22 -72 41 -70 44 3 2 35 -6 71 -18 36 -12 68 -20 70 -18 3 2 -26 21 -63
41 -37 20 -64 37 -61 37 3 0 43 -13 90 -29z"/>
<path d="M2830 2131 c0 -11 -10 -27 -22 -35 -16 -12 -18 -17 -7 -21 32 -11
132 -45 136 -45 1 0 3 8 3 19 0 10 7 24 15 31 24 20 18 29 -22 36 -21 3 -48
12 -60 20 -31 19 -43 18 -43 -5z m31 -24 c-6 -8 -8 -17 -4 -20 3 -4 -1 -7 -10
-7 -15 0 -15 3 -5 20 7 11 17 20 22 20 4 0 3 -6 -3 -13z m67 -27 c-7 -11 -18
-20 -25 -20 -9 0 -7 6 5 19 23 26 35 26 20 1z"/>
</g>
</svg>
